# xmcd CD database file
#
# Track frame offsets:
#	150
#	17545
#	38055
#	55817
#	70502
#	93845
#	111142
#	129652
#	142080
#	153712
#
# Disc length: 2440 seconds
#
# Revision: 1
# Processed by: cddbd v1.5.2PL0 Copyright (c) Steve Scherf et al.
# Submitted via: CDex 1.51
#
DISCID=8009860a
DTITLE=Howlin' Wolf - The Howlin' Wolf Album
DYEAR=1900
DGENRE=Blues
TTITLE0=Spoonful
TTITLE1=Tail Dragger
TTITLE2=Smokestack Lightning
TTITLE3=Moanin' At Midnight
TTITLE4=Built For Comfort
TTITLE5=The Red Rooster
TTITLE6=Evil
TTITLE7=Down In The Bottom
TTITLE8=Three Hundred Pounds Of Joy
TTITLE9=Back Door Man
EXTD=
EXTT0=
EXTT1=
EXTT2=
EXTT3=
EXTT4=
EXTT5=
EXTT6=
EXTT7=
EXTT8=
EXTT9=
PLAYORDER=
